<mxfile host="app.diagrams.net" modified="2022-08-22T05:18:28.878Z" agent="5.0 (Windows)" etag="zd8kMkk2aqcK9U_8c2SP" version="20.2.5" type="github">
  <diagram id="C5RBs43oDa-KdzZeNtuy" name="Page-1">
    <mxGraphModel dx="2377" dy="891" grid="1" gridSize="10" guides="1" tooltips="1" connect="1" arrows="1" fold="1" page="1" pageScale="1" pageWidth="827" pageHeight="1169" math="0" shadow="0">
      <root>
        <mxCell id="WIyWlLk6GJQsqaUBKTNV-0" />
        <mxCell id="WIyWlLk6GJQsqaUBKTNV-1" parent="WIyWlLk6GJQsqaUBKTNV-0" />
        <mxCell id="mnoLg_Z1RBFlBjA_xJwc-18" style="edgeStyle=orthogonalEdgeStyle;rounded=0;orthogonalLoop=1;jettySize=auto;html=1;exitX=0.5;exitY=1;exitDx=0;exitDy=0;exitPerimeter=0;" parent="WIyWlLk6GJQsqaUBKTNV-1" source="mnoLg_Z1RBFlBjA_xJwc-0" target="mnoLg_Z1RBFlBjA_xJwc-2" edge="1">
          <mxGeometry relative="1" as="geometry" />
        </mxCell>
        <mxCell id="mnoLg_Z1RBFlBjA_xJwc-0" value="Inicio" style="strokeWidth=2;html=1;shape=mxgraph.flowchart.terminator;whiteSpace=wrap;" parent="WIyWlLk6GJQsqaUBKTNV-1" vertex="1">
          <mxGeometry x="-490" y="560" width="100" height="60" as="geometry" />
        </mxCell>
        <mxCell id="mnoLg_Z1RBFlBjA_xJwc-1" value="Fin" style="strokeWidth=2;html=1;shape=mxgraph.flowchart.terminator;whiteSpace=wrap;" parent="WIyWlLk6GJQsqaUBKTNV-1" vertex="1">
          <mxGeometry x="289" y="790" width="100" height="60" as="geometry" />
        </mxCell>
        <mxCell id="mnoLg_Z1RBFlBjA_xJwc-19" style="edgeStyle=orthogonalEdgeStyle;rounded=0;orthogonalLoop=1;jettySize=auto;html=1;exitX=0.5;exitY=1;exitDx=0;exitDy=0;entryX=0.5;entryY=0;entryDx=0;entryDy=0;" parent="WIyWlLk6GJQsqaUBKTNV-1" source="mnoLg_Z1RBFlBjA_xJwc-2" target="mnoLg_Z1RBFlBjA_xJwc-4" edge="1">
          <mxGeometry relative="1" as="geometry" />
        </mxCell>
        <mxCell id="mnoLg_Z1RBFlBjA_xJwc-2" value="&lt;div&gt;Abrir la herramienta Desfragmentar y optimizar unidades&lt;br&gt;&lt;/div&gt;&lt;div&gt;(Optimizar unidades)&lt;br&gt;&lt;/div&gt;" style="rounded=1;whiteSpace=wrap;html=1;absoluteArcSize=1;arcSize=14;strokeWidth=2;" parent="WIyWlLk6GJQsqaUBKTNV-1" vertex="1">
          <mxGeometry x="-505" y="670" width="130" height="60" as="geometry" />
        </mxCell>
        <mxCell id="mnoLg_Z1RBFlBjA_xJwc-20" style="edgeStyle=orthogonalEdgeStyle;rounded=0;orthogonalLoop=1;jettySize=auto;html=1;exitX=1;exitY=0.5;exitDx=0;exitDy=0;" parent="WIyWlLk6GJQsqaUBKTNV-1" source="mnoLg_Z1RBFlBjA_xJwc-4" target="mnoLg_Z1RBFlBjA_xJwc-5" edge="1">
          <mxGeometry relative="1" as="geometry" />
        </mxCell>
        <mxCell id="mnoLg_Z1RBFlBjA_xJwc-4" value="Seleccionar la Unidad que se desea desfragmentar" style="rounded=1;whiteSpace=wrap;html=1;absoluteArcSize=1;arcSize=14;strokeWidth=2;" parent="WIyWlLk6GJQsqaUBKTNV-1" vertex="1">
          <mxGeometry x="-510" y="770" width="140" height="60" as="geometry" />
        </mxCell>
        <mxCell id="qCQZMc40TbOuLJppwZFZ-22" style="edgeStyle=orthogonalEdgeStyle;rounded=0;orthogonalLoop=1;jettySize=auto;html=1;exitX=0.5;exitY=0;exitDx=0;exitDy=0;" edge="1" parent="WIyWlLk6GJQsqaUBKTNV-1" source="mnoLg_Z1RBFlBjA_xJwc-5" target="qCQZMc40TbOuLJppwZFZ-21">
          <mxGeometry relative="1" as="geometry" />
        </mxCell>
        <mxCell id="mnoLg_Z1RBFlBjA_xJwc-5" value="Seleccionamos la opción Analizar" style="rounded=1;whiteSpace=wrap;html=1;absoluteArcSize=1;arcSize=14;strokeWidth=2;" parent="WIyWlLk6GJQsqaUBKTNV-1" vertex="1">
          <mxGeometry x="-310" y="770" width="140" height="60" as="geometry" />
        </mxCell>
        <mxCell id="qCQZMc40TbOuLJppwZFZ-31" value="" style="edgeStyle=orthogonalEdgeStyle;rounded=0;orthogonalLoop=1;jettySize=auto;html=1;" edge="1" parent="WIyWlLk6GJQsqaUBKTNV-1" source="mnoLg_Z1RBFlBjA_xJwc-7" target="qCQZMc40TbOuLJppwZFZ-25">
          <mxGeometry relative="1" as="geometry" />
        </mxCell>
        <mxCell id="mnoLg_Z1RBFlBjA_xJwc-7" value="Una vez finalizado el análisis se mostrara si la unidad requiere una desfragmentación" style="rounded=1;whiteSpace=wrap;html=1;absoluteArcSize=1;arcSize=14;strokeWidth=2;" parent="WIyWlLk6GJQsqaUBKTNV-1" vertex="1">
          <mxGeometry x="-317.5" y="555" width="155" height="70" as="geometry" />
        </mxCell>
        <mxCell id="qCQZMc40TbOuLJppwZFZ-37" value="" style="edgeStyle=orthogonalEdgeStyle;rounded=0;orthogonalLoop=1;jettySize=auto;html=1;" edge="1" parent="WIyWlLk6GJQsqaUBKTNV-1" source="mnoLg_Z1RBFlBjA_xJwc-8" target="qCQZMc40TbOuLJppwZFZ-26">
          <mxGeometry relative="1" as="geometry" />
        </mxCell>
        <mxCell id="mnoLg_Z1RBFlBjA_xJwc-8" value="Optimización finalizada y completada con exito" style="rounded=1;whiteSpace=wrap;html=1;absoluteArcSize=1;arcSize=14;strokeWidth=2;" parent="WIyWlLk6GJQsqaUBKTNV-1" vertex="1">
          <mxGeometry x="90" y="686.25" width="120" height="51.25" as="geometry" />
        </mxCell>
        <mxCell id="qCQZMc40TbOuLJppwZFZ-24" value="" style="edgeStyle=orthogonalEdgeStyle;rounded=0;orthogonalLoop=1;jettySize=auto;html=1;" edge="1" parent="WIyWlLk6GJQsqaUBKTNV-1" source="qCQZMc40TbOuLJppwZFZ-21" target="mnoLg_Z1RBFlBjA_xJwc-7">
          <mxGeometry relative="1" as="geometry" />
        </mxCell>
        <mxCell id="qCQZMc40TbOuLJppwZFZ-21" value="&lt;div&gt;Proceso de&lt;/div&gt;&lt;div&gt;Análisis&lt;br&gt;&lt;/div&gt;" style="shape=parallelogram;html=1;strokeWidth=2;perimeter=parallelogramPerimeter;whiteSpace=wrap;rounded=1;arcSize=12;size=0.23;" vertex="1" parent="WIyWlLk6GJQsqaUBKTNV-1">
          <mxGeometry x="-315" y="665" width="150" height="70" as="geometry" />
        </mxCell>
        <mxCell id="qCQZMc40TbOuLJppwZFZ-29" value="Si" style="edgeStyle=orthogonalEdgeStyle;rounded=0;orthogonalLoop=1;jettySize=auto;html=1;" edge="1" parent="WIyWlLk6GJQsqaUBKTNV-1" source="qCQZMc40TbOuLJppwZFZ-25" target="qCQZMc40TbOuLJppwZFZ-27">
          <mxGeometry relative="1" as="geometry" />
        </mxCell>
        <mxCell id="qCQZMc40TbOuLJppwZFZ-30" value="No" style="edgeStyle=orthogonalEdgeStyle;rounded=0;orthogonalLoop=1;jettySize=auto;html=1;" edge="1" parent="WIyWlLk6GJQsqaUBKTNV-1" source="qCQZMc40TbOuLJppwZFZ-25" target="qCQZMc40TbOuLJppwZFZ-26">
          <mxGeometry relative="1" as="geometry" />
        </mxCell>
        <mxCell id="qCQZMc40TbOuLJppwZFZ-25" value="&lt;div&gt;¿Es necesaria&lt;/div&gt;&lt;div&gt;la desfragmentación?&lt;/div&gt;" style="strokeWidth=2;html=1;shape=mxgraph.flowchart.decision;whiteSpace=wrap;" vertex="1" parent="WIyWlLk6GJQsqaUBKTNV-1">
          <mxGeometry x="-110" y="529.38" width="160" height="121.25" as="geometry" />
        </mxCell>
        <mxCell id="qCQZMc40TbOuLJppwZFZ-36" value="" style="edgeStyle=orthogonalEdgeStyle;rounded=0;orthogonalLoop=1;jettySize=auto;html=1;" edge="1" parent="WIyWlLk6GJQsqaUBKTNV-1" source="qCQZMc40TbOuLJppwZFZ-26" target="mnoLg_Z1RBFlBjA_xJwc-1">
          <mxGeometry relative="1" as="geometry" />
        </mxCell>
        <mxCell id="qCQZMc40TbOuLJppwZFZ-26" value="No se requieren más optimizaciones por el momento, se puede finalizar el proceso" style="rounded=1;whiteSpace=wrap;html=1;absoluteArcSize=1;arcSize=14;strokeWidth=2;" vertex="1" parent="WIyWlLk6GJQsqaUBKTNV-1">
          <mxGeometry x="264" y="676.88" width="150" height="70" as="geometry" />
        </mxCell>
        <mxCell id="qCQZMc40TbOuLJppwZFZ-32" value="" style="edgeStyle=orthogonalEdgeStyle;rounded=0;orthogonalLoop=1;jettySize=auto;html=1;" edge="1" parent="WIyWlLk6GJQsqaUBKTNV-1" source="qCQZMc40TbOuLJppwZFZ-27" target="qCQZMc40TbOuLJppwZFZ-28">
          <mxGeometry relative="1" as="geometry" />
        </mxCell>
        <mxCell id="qCQZMc40TbOuLJppwZFZ-27" value="Seleccionamos nuevamente la unidad" style="rounded=1;whiteSpace=wrap;html=1;absoluteArcSize=1;arcSize=14;strokeWidth=2;" vertex="1" parent="WIyWlLk6GJQsqaUBKTNV-1">
          <mxGeometry x="-90.5" y="693.75" width="121" height="55" as="geometry" />
        </mxCell>
        <mxCell id="qCQZMc40TbOuLJppwZFZ-34" value="" style="edgeStyle=orthogonalEdgeStyle;rounded=0;orthogonalLoop=1;jettySize=auto;html=1;" edge="1" parent="WIyWlLk6GJQsqaUBKTNV-1" source="qCQZMc40TbOuLJppwZFZ-28" target="qCQZMc40TbOuLJppwZFZ-33">
          <mxGeometry relative="1" as="geometry" />
        </mxCell>
        <mxCell id="qCQZMc40TbOuLJppwZFZ-28" value="Seleccionamos la opción Optimizar" style="rounded=1;whiteSpace=wrap;html=1;absoluteArcSize=1;arcSize=14;strokeWidth=2;" vertex="1" parent="WIyWlLk6GJQsqaUBKTNV-1">
          <mxGeometry x="-90.5" y="772.5" width="121" height="55" as="geometry" />
        </mxCell>
        <mxCell id="qCQZMc40TbOuLJppwZFZ-35" value="" style="edgeStyle=orthogonalEdgeStyle;rounded=0;orthogonalLoop=1;jettySize=auto;html=1;" edge="1" parent="WIyWlLk6GJQsqaUBKTNV-1" source="qCQZMc40TbOuLJppwZFZ-33" target="mnoLg_Z1RBFlBjA_xJwc-8">
          <mxGeometry relative="1" as="geometry" />
        </mxCell>
        <mxCell id="qCQZMc40TbOuLJppwZFZ-33" value="&lt;div&gt;Proceso de&lt;/div&gt;&lt;div&gt;Optimización&lt;br&gt;&lt;/div&gt;" style="shape=parallelogram;html=1;strokeWidth=2;perimeter=parallelogramPerimeter;whiteSpace=wrap;rounded=1;arcSize=12;size=0.23;" vertex="1" parent="WIyWlLk6GJQsqaUBKTNV-1">
          <mxGeometry x="90" y="765" width="120" height="70" as="geometry" />
        </mxCell>
      </root>
    </mxGraphModel>
  </diagram>
</mxfile>
